<?xml version="1.0" encoding="UTF-8" standalone="no"?>
<!-- Generator: Adobe Illustrator 21.1.0, SVG Export Plug-In . SVG Version: 6.00 Build 0)  -->

<svg
   xmlns:dc="http://purl.org/dc/elements/1.1/"
   xmlns:cc="http://creativecommons.org/ns#"
   xmlns:rdf="http://www.w3.org/1999/02/22-rdf-syntax-ns#"
   xmlns:svg="http://www.w3.org/2000/svg"
   xmlns="http://www.w3.org/2000/svg"
   xmlns:xlink="http://www.w3.org/1999/xlink"
   xmlns:sodipodi="http://sodipodi.sourceforge.net/DTD/sodipodi-0.dtd"
   xmlns:inkscape="http://www.inkscape.org/namespaces/inkscape"
   version="1.1"
   id="Layer_1"
   x="0px"
   y="0px"
   viewBox="0 0 283.5 110.3"
   style="enable-background:new 0 0 283.5 110.3;"
   xml:space="preserve"
   sodipodi:docname="eq-git.svg"
   inkscape:version="0.92.2 (5c3e80d, 2017-08-06)"><metadata
     id="metadata37"><rdf:RDF><cc:Work
         rdf:about=""><dc:format>image/svg+xml</dc:format><dc:type
           rdf:resource="http://purl.org/dc/dcmitype/StillImage" /><dc:title></dc:title></cc:Work></rdf:RDF></metadata><defs
     id="defs35"><linearGradient
       inkscape:collect="always"
       id="linearGradient862"><stop
         style="stop-color:#000000;stop-opacity:1;"
         offset="0"
         id="stop858" /><stop
         style="stop-color:#000000;stop-opacity:0;"
         offset="1"
         id="stop860" /></linearGradient><linearGradient
       inkscape:collect="always"
       xlink:href="#linearGradient862"
       id="linearGradient864"
       x1="190"
       y1="48.582379"
       x2="253.4"
       y2="48.582379"
       gradientUnits="userSpaceOnUse" /><clipPath
       id="SVGID_2_-2"
       style="fill:url(#linearGradient864);fill-opacity:1"><use
         height="100%"
         width="100%"
         y="0"
         x="0"
         id="use7-6"
         style="overflow:visible;fill:url(#linearGradient864);fill-opacity:1"
         xlink:href="#SVGID_1_-6" /></clipPath><rect
       height="88.300003"
       width="223.3"
       y="11"
       x="30.1"
       id="SVGID_1_-6"
       style="fill:url(#linearGradient864);fill-opacity:1" /><clipPath
       id="SVGID_2_-3"
       style="fill:url(#linearGradient864);fill-opacity:1"><use
         height="100%"
         width="100%"
         y="0"
         x="0"
         id="use7-60"
         style="overflow:visible;fill:url(#linearGradient864);fill-opacity:1"
         xlink:href="#SVGID_1_-0" /></clipPath><rect
       height="88.300003"
       width="223.3"
       y="11"
       x="30.1"
       id="SVGID_1_-0"
       style="fill:url(#linearGradient864);fill-opacity:1" /></defs><sodipodi:namedview
     pagecolor="#ffffff"
     bordercolor="#666666"
     borderopacity="1"
     objecttolerance="10"
     gridtolerance="10"
     guidetolerance="10"
     inkscape:pageopacity="0"
     inkscape:pageshadow="2"
     inkscape:window-width="1920"
     inkscape:window-height="1009"
     id="namedview33"
     showgrid="false"
     inkscape:zoom="2.8077601"
     inkscape:cx="110.73181"
     inkscape:cy="77.443297"
     inkscape:window-x="0"
     inkscape:window-y="34"
     inkscape:window-maximized="1"
     inkscape:current-layer="Layer_1" /><style
     type="text/css"
     id="style2">
	.st0{clip-path:url(#SVGID_2_);fill:#000;}
	.st1{fill:#000;}
</style><g
     id="g1007"
     transform="translate(3.5262325,4.54348)"><path
       class="st1"
       d="m 178,67.8 c -0.2,-0.5 -0.6,-0.6 -1,-0.4 -0.4,0.3 -8.7,5.2 -8.7,5.2 v -4.5 c 0,-0.5 -0.3,-0.7 -0.8,-0.5 l -2.7,1 c -0.4,0.1 -0.5,0.4 -0.5,0.8 v 20 c 0,0.4 0.3,0.7 0.7,0.7 h 2.6 c 0.4,0 0.7,-0.3 0.7,-0.7 V 77.1 c 0,0 9.7,-6 10.1,-6.3 0.4,-0.2 0.6,-0.4 0.4,-0.9 -0.1,-0.4 -0.8,-2.1 -0.8,-2.1"
       id="path14"
       inkscape:connector-curvature="0"
       style="opacity:1;vector-effect:none;fill:#ff1243;fill-opacity:1;stroke-width:1;stroke-linecap:butt;stroke-linejoin:miter;stroke-miterlimit:4;stroke-dasharray:none;stroke-dashoffset:0;stroke-opacity:1" /><path
       class="st1"
       d="m 34.5,76.3 c 0.9,-3.2 3.4,-5.1 6.9,-5.1 3.8,0 5.9,2.3 6.1,5.1 z m 17.2,1.2 c 0,-5.6 -3.8,-10.2 -10.1,-10.2 -6.3,0 -11.4,4.5 -11.4,11.8 0,6.7 4.4,11.5 11.7,11.5 3.3,0 6.7,-1.2 9.2,-3.4 0.3,-0.3 0.3,-0.6 0.1,-1 l -1.3,-1.9 c -0.2,-0.4 -0.6,-0.4 -1,-0.1 -2.3,1.7 -4.6,2.5 -7,2.5 -4.7,0 -7.2,-3.1 -7.5,-6.9 H 51 c 0.4,0 0.7,-0.3 0.7,-0.7 z"
       id="path16"
       inkscape:connector-curvature="0"
       style="opacity:1;vector-effect:none;fill:#ff1243;fill-opacity:1;stroke-width:1;stroke-linecap:butt;stroke-linejoin:miter;stroke-miterlimit:4;stroke-dasharray:none;stroke-dashoffset:0;stroke-opacity:1" /><path
       class="st1"
       d="m 66.3,86.6 c -3.9,0 -7.3,-2.7 -7.3,-7.8 0,-5.1 3.4,-7.7 7.3,-7.7 4.1,0 7.3,2.6 7.3,7.7 0,5.2 -3.2,7.8 -7.3,7.8 m 7.9,12.7 h 2.6 c 0.4,0 0.7,-0.3 0.7,-0.7 V 68.1 c 0,-0.5 -0.3,-0.7 -0.8,-0.5 l -2.6,1 c -0.4,0.1 -0.5,0.4 -0.5,0.8 v 1 C 72.2,68.5 69.3,67.3 66.3,67.3 60.2,67.3 55,71.8 55,79 c 0,6.3 4.1,11.7 11.1,11.7 3.2,0 6.3,-1.4 7.5,-3.1 v 11.1 c 0,0.3 0.2,0.6 0.6,0.6"
       id="path18"
       inkscape:connector-curvature="0"
       style="opacity:1;vector-effect:none;fill:#ff1243;fill-opacity:1;stroke-width:1;stroke-linecap:butt;stroke-linejoin:miter;stroke-miterlimit:4;stroke-dasharray:none;stroke-dashoffset:0;stroke-opacity:1" /><path
       class="st1"
       d="m 90.7,90.6 c 2.4,0 5,-0.8 6.8,-3.3 v 2 c 0,0.4 0.3,0.7 0.7,0.7 h 2.6 c 0.4,0 0.7,-0.3 0.7,-0.7 V 68.2 c 0,-0.6 -0.3,-0.7 -0.8,-0.6 l -2.7,1 c -0.4,0.1 -0.5,0.4 -0.5,0.8 v 11.1 c 0,3.9 -2.5,6.2 -6,6.2 -3.4,0 -5.7,-2.2 -5.7,-6.2 V 68.1 c 0,-0.5 -0.3,-0.7 -0.8,-0.5 l -2.7,1 c -0.4,0.1 -0.5,0.4 -0.5,0.8 v 11.3 c -0.1,6.5 3.9,9.9 8.9,9.9"
       id="path20"
       inkscape:connector-curvature="0"
       style="opacity:1;vector-effect:none;fill:#ff1243;fill-opacity:1;stroke-width:1;stroke-linecap:butt;stroke-linejoin:miter;stroke-miterlimit:4;stroke-dasharray:none;stroke-dashoffset:0;stroke-opacity:1" /><path
       class="st1"
       d="m 106.9,65.2 2.8,-0.9 c 0.5,-0.1 0.6,-0.4 0.6,-0.8 v -3.4 c 0,-0.4 -0.3,-0.7 -0.8,-0.6 l -2.8,1 c -0.4,0.1 -0.6,0.3 -0.6,0.8 v 3.2 c 0,0.6 0.3,0.9 0.8,0.7"
       id="path22"
       inkscape:connector-curvature="0"
       style="opacity:1;vector-effect:none;fill:#ff1243;fill-opacity:1;stroke-width:1;stroke-linecap:butt;stroke-linejoin:miter;stroke-miterlimit:4;stroke-dasharray:none;stroke-dashoffset:0;stroke-opacity:1" /><path
       class="st1"
       d="m 106.9,90 h 2.6 c 0.4,0 0.7,-0.3 0.7,-0.7 V 68.1 c 0,-0.5 -0.3,-0.7 -0.8,-0.5 l -2.7,1 c -0.4,0.1 -0.5,0.4 -0.5,0.8 v 20 c 0,0.3 0.3,0.6 0.7,0.6"
       id="path24"
       inkscape:connector-curvature="0"
       style="opacity:1;vector-effect:none;fill:#ff1243;fill-opacity:1;stroke-width:1;stroke-linecap:butt;stroke-linejoin:miter;stroke-miterlimit:4;stroke-dasharray:none;stroke-dashoffset:0;stroke-opacity:1" /><path
       class="st1"
       d="m 115.7,90 h 2.6 c 0.4,0 0.7,-0.3 0.7,-0.7 v -12 c 0,-3.9 2.5,-6.2 6,-6.2 3.4,0 5.7,2.2 5.7,6.2 v 12 c 0,0.4 0.3,0.7 0.7,0.7 h 2.6 c 0.4,0 0.7,-0.3 0.7,-0.7 V 77.2 c 0,-6.6 -4,-10 -9,-10 -2.4,0 -5,0.8 -6.8,3.3 v -2.4 c 0,-0.5 -0.3,-0.7 -0.8,-0.5 l -2.7,1 c -0.4,0.1 -0.5,0.4 -0.5,0.8 v 20 c 0.1,0.3 0.4,0.6 0.8,0.6"
       id="path26"
       inkscape:connector-curvature="0"
       style="opacity:1;vector-effect:none;fill:#ff1243;fill-opacity:1;stroke-width:1;stroke-linecap:butt;stroke-linejoin:miter;stroke-miterlimit:4;stroke-dasharray:none;stroke-dashoffset:0;stroke-opacity:1" /><path
       class="st1"
       d="m 149.5,86.7 c -4.6,0 -7.4,-3.4 -7.4,-7.8 0,-4.4 2.8,-7.8 7.4,-7.8 4.5,0 7.3,3.4 7.3,7.8 0.1,4.3 -2.7,7.8 -7.3,7.8 m 0,-19.5 c -6.7,0 -11.4,5 -11.4,11.7 0,6.7 4.8,11.7 11.4,11.7 6.7,0 11.4,-5 11.4,-11.7 0,-6.7 -4.7,-11.7 -11.4,-11.7"
       id="path28"
       inkscape:connector-curvature="0"
       style="opacity:1;vector-effect:none;fill:#ff1243;fill-opacity:1;stroke-width:1;stroke-linecap:butt;stroke-linejoin:miter;stroke-miterlimit:4;stroke-dasharray:none;stroke-dashoffset:0;stroke-opacity:1" /><path
       id="path959"
       d="M 244.83147,36.119967 212.03699,3.329511 c -1.88692,-1.888624 -4.9498,-1.888624 -6.83908,0 l -6.80941,6.81007 8.63752,8.637517 c 2.00801,-0.677976 4.30959,-0.223408 5.90946,1.376781 1.60817,1.610156 2.0595,3.931381 1.36452,5.946121 l 8.32503,8.325032 c 2.01408,-0.694061 4.33788,-0.245651 5.94613,1.365441 2.24844,2.247786 2.24844,5.890085 0,8.138463 -2.24878,2.249104 -5.89108,2.249104 -8.14111,0 -1.69065,-1.691969 -2.10882,-4.17603 -1.25251,-6.259068 l -7.76401,-7.764008 -6.6e-4,20.430872 c 0.54818,0.271361 1.06548,0.633541 1.52228,1.088358 2.24778,2.247522 2.24778,5.889163 0,8.140441 -2.24844,2.247456 -5.89239,2.247456 -8.13847,0 -2.2481,-2.25108 -2.2481,-5.892722 0,-8.140441 0.55559,-0.554595 1.19846,-0.974373 1.88441,-1.255742 V 29.548612 c -0.68628,-0.280182 -1.32839,-0.69683 -1.8848,-1.255875 -1.70284,-1.701529 -2.11297,-4.200752 -1.23966,-6.291833 L 195.04174,13.48469 172.5573,35.968472 c -1.88922,1.890075 -1.88922,4.952958 0,6.841714 l 32.7925,32.790522 c 1.88796,1.888625 4.9498,1.888625 6.8404,0 L 244.83107,42.96511 c 1.88862,-1.889547 1.88862,-4.953354 0,-6.842373"
       inkscape:connector-curvature="0"
       style="opacity:1;vector-effect:none;fill:#ff1243;fill-opacity:1;stroke-width:0.65925175;stroke-linecap:butt;stroke-linejoin:miter;stroke-miterlimit:4;stroke-dasharray:none;stroke-dashoffset:0;stroke-opacity:1" /></g></svg>